<mxfile host="app.diagrams.net" modified="2021-01-30T10:40:58.409Z" agent="5.0 (Macintosh; Intel Mac OS X 10_14_4) AppleWebKit/537.36 (KHTML, like Gecko) Chrome/88.0.4324.96 Safari/537.36" etag="wXruoKq1yvGzaJjwlhM2" version="14.2.6" type="github" pages="2">
  <diagram id="vDKrsg2r3aWzpiPaRx9S" name="Page-1">
    <mxGraphModel dx="786" dy="402" grid="1" gridSize="10" guides="1" tooltips="1" connect="1" arrows="1" fold="1" page="1" pageScale="1" pageWidth="827" pageHeight="1169" math="0" shadow="0">
      <root>
        <mxCell id="0" />
        <mxCell id="1" parent="0" />
        <mxCell id="dqhMgl3KdzNjkr8ls9Ie-1" value="edge-agent" style="shape=umlLifeline;perimeter=lifelinePerimeter;whiteSpace=wrap;html=1;container=1;collapsible=0;recursiveResize=0;outlineConnect=0;fillColor=#66FF66;" parent="1" vertex="1">
          <mxGeometry x="10" y="30" width="100" height="340" as="geometry" />
        </mxCell>
        <mxCell id="dqhMgl3KdzNjkr8ls9Ie-2" value="" style="shape=umlLifeline;perimeter=lifelinePerimeter;whiteSpace=wrap;html=1;container=1;collapsible=0;recursiveResize=0;outlineConnect=0;fillColor=#33FF33;" parent="1" vertex="1">
          <mxGeometry x="140" y="30" width="100" height="340" as="geometry" />
        </mxCell>
        <mxCell id="dqhMgl3KdzNjkr8ls9Ie-12" value="" style="html=1;points=[];perimeter=orthogonalPerimeter;" parent="dqhMgl3KdzNjkr8ls9Ie-2" vertex="1">
          <mxGeometry x="45" y="70" width="10" height="20" as="geometry" />
        </mxCell>
        <mxCell id="dqhMgl3KdzNjkr8ls9Ie-29" value="" style="html=1;points=[];perimeter=orthogonalPerimeter;" parent="dqhMgl3KdzNjkr8ls9Ie-2" vertex="1">
          <mxGeometry x="45" y="260" width="10" height="20" as="geometry" />
        </mxCell>
        <mxCell id="dqhMgl3KdzNjkr8ls9Ie-3" value="ea" style="shape=umlLifeline;perimeter=lifelinePerimeter;whiteSpace=wrap;html=1;container=1;collapsible=0;recursiveResize=0;outlineConnect=0;fillColor=#FFB366;" parent="1" vertex="1">
          <mxGeometry x="260" y="30" width="100" height="340" as="geometry" />
        </mxCell>
        <mxCell id="dqhMgl3KdzNjkr8ls9Ie-13" value="" style="html=1;points=[];perimeter=orthogonalPerimeter;" parent="dqhMgl3KdzNjkr8ls9Ie-3" vertex="1">
          <mxGeometry x="45" y="90" width="10" height="20" as="geometry" />
        </mxCell>
        <mxCell id="dqhMgl3KdzNjkr8ls9Ie-26" value="" style="html=1;points=[];perimeter=orthogonalPerimeter;" parent="dqhMgl3KdzNjkr8ls9Ie-3" vertex="1">
          <mxGeometry x="45" y="240" width="10" height="20" as="geometry" />
        </mxCell>
        <mxCell id="dqhMgl3KdzNjkr8ls9Ie-4" value="image-controller" style="shape=umlLifeline;perimeter=lifelinePerimeter;whiteSpace=wrap;html=1;container=1;collapsible=0;recursiveResize=0;outlineConnect=0;fillColor=#FFB366;" parent="1" vertex="1">
          <mxGeometry x="390" y="30" width="100" height="340" as="geometry" />
        </mxCell>
        <mxCell id="dqhMgl3KdzNjkr8ls9Ie-15" value="" style="html=1;points=[];perimeter=orthogonalPerimeter;" parent="dqhMgl3KdzNjkr8ls9Ie-4" vertex="1">
          <mxGeometry x="45" y="110" width="10" height="130" as="geometry" />
        </mxCell>
        <mxCell id="dqhMgl3KdzNjkr8ls9Ie-5" value="edge-node" style="shape=umlLifeline;perimeter=lifelinePerimeter;whiteSpace=wrap;html=1;container=1;collapsible=0;recursiveResize=0;outlineConnect=0;fillColor=#FFB366;" parent="1" vertex="1">
          <mxGeometry x="520" y="30" width="100" height="340" as="geometry" />
        </mxCell>
        <mxCell id="dqhMgl3KdzNjkr8ls9Ie-22" value="" style="html=1;points=[];perimeter=orthogonalPerimeter;" parent="dqhMgl3KdzNjkr8ls9Ie-5" vertex="1">
          <mxGeometry x="45" y="120" width="10" height="70" as="geometry" />
        </mxCell>
        <mxCell id="dqhMgl3KdzNjkr8ls9Ie-6" value="cloud-bos" style="shape=umlLifeline;perimeter=lifelinePerimeter;whiteSpace=wrap;html=1;container=1;collapsible=0;recursiveResize=0;outlineConnect=0;fillColor=#33FF33;" parent="1" vertex="1">
          <mxGeometry x="650" y="30" width="100" height="340" as="geometry" />
        </mxCell>
        <mxCell id="dqhMgl3KdzNjkr8ls9Ie-11" value="update vm anno" style="html=1;verticalAlign=bottom;endArrow=block;" parent="1" source="dqhMgl3KdzNjkr8ls9Ie-1" target="dqhMgl3KdzNjkr8ls9Ie-2" edge="1">
          <mxGeometry width="80" relative="1" as="geometry">
            <mxPoint x="60" y="100" as="sourcePoint" />
            <mxPoint x="140" y="100" as="targetPoint" />
            <Array as="points">
              <mxPoint x="140" y="100" />
            </Array>
          </mxGeometry>
        </mxCell>
        <mxCell id="dqhMgl3KdzNjkr8ls9Ie-14" value="sync vm" style="html=1;verticalAlign=bottom;endArrow=block;exitX=0.8;exitY=1;exitDx=0;exitDy=0;exitPerimeter=0;" parent="1" source="dqhMgl3KdzNjkr8ls9Ie-12" edge="1">
          <mxGeometry width="80" relative="1" as="geometry">
            <mxPoint x="210" y="120" as="sourcePoint" />
            <mxPoint x="310" y="120" as="targetPoint" />
            <Array as="points" />
          </mxGeometry>
        </mxCell>
        <mxCell id="dqhMgl3KdzNjkr8ls9Ie-16" value="watch vm update" style="html=1;verticalAlign=bottom;endArrow=block;exitX=0.8;exitY=1;exitDx=0;exitDy=0;exitPerimeter=0;entryX=0.3;entryY=0;entryDx=0;entryDy=0;entryPerimeter=0;" parent="1" target="dqhMgl3KdzNjkr8ls9Ie-15" edge="1">
          <mxGeometry width="80" relative="1" as="geometry">
            <mxPoint x="310" y="140" as="sourcePoint" />
            <mxPoint x="427" y="140" as="targetPoint" />
            <Array as="points">
              <mxPoint x="377.5" y="140" />
            </Array>
          </mxGeometry>
        </mxCell>
        <mxCell id="dqhMgl3KdzNjkr8ls9Ie-23" value="get rootfs lv" style="html=1;verticalAlign=bottom;endArrow=block;entryX=0;entryY=0;" parent="1" target="dqhMgl3KdzNjkr8ls9Ie-22" edge="1">
          <mxGeometry relative="1" as="geometry">
            <mxPoint x="444" y="150" as="sourcePoint" />
          </mxGeometry>
        </mxCell>
        <mxCell id="dqhMgl3KdzNjkr8ls9Ie-27" value="update vm anno" style="html=1;verticalAlign=bottom;endArrow=open;dashed=1;endSize=8;exitX=-0.1;exitY=0.977;exitDx=0;exitDy=0;exitPerimeter=0;" parent="1" source="dqhMgl3KdzNjkr8ls9Ie-15" target="dqhMgl3KdzNjkr8ls9Ie-3" edge="1">
          <mxGeometry x="0.0281" y="-7" relative="1" as="geometry">
            <mxPoint x="440" y="230" as="sourcePoint" />
            <mxPoint x="360" y="230" as="targetPoint" />
            <mxPoint as="offset" />
          </mxGeometry>
        </mxCell>
        <mxCell id="dqhMgl3KdzNjkr8ls9Ie-28" value="&lt;font style=&quot;font-size: 11px&quot;&gt;sync vm status&lt;/font&gt;" style="html=1;verticalAlign=bottom;endArrow=open;dashed=1;endSize=8;exitX=0.5;exitY=1;exitDx=0;exitDy=0;exitPerimeter=0;" parent="1" source="dqhMgl3KdzNjkr8ls9Ie-26" target="dqhMgl3KdzNjkr8ls9Ie-2" edge="1">
          <mxGeometry relative="1" as="geometry">
            <mxPoint x="300" y="250" as="sourcePoint" />
            <mxPoint x="190" y="250" as="targetPoint" />
          </mxGeometry>
        </mxCell>
        <mxCell id="dqhMgl3KdzNjkr8ls9Ie-30" value="success" style="html=1;verticalAlign=bottom;endArrow=open;dashed=1;endSize=8;exitX=0.3;exitY=1;exitDx=0;exitDy=0;exitPerimeter=0;" parent="1" source="dqhMgl3KdzNjkr8ls9Ie-29" target="dqhMgl3KdzNjkr8ls9Ie-1" edge="1">
          <mxGeometry relative="1" as="geometry">
            <mxPoint x="180" y="270" as="sourcePoint" />
            <mxPoint x="70" y="270" as="targetPoint" />
          </mxGeometry>
        </mxCell>
        <mxCell id="dqhMgl3KdzNjkr8ls9Ie-33" value="success" style="html=1;verticalAlign=bottom;endArrow=open;dashed=1;endSize=8;exitX=0;exitY=0.271;exitDx=0;exitDy=0;exitPerimeter=0;" parent="1" source="dqhMgl3KdzNjkr8ls9Ie-22" edge="1">
          <mxGeometry relative="1" as="geometry">
            <mxPoint x="560" y="170" as="sourcePoint" />
            <mxPoint x="450" y="168" as="targetPoint" />
            <Array as="points" />
          </mxGeometry>
        </mxCell>
        <mxCell id="dqhMgl3KdzNjkr8ls9Ie-37" value="" style="html=1;points=[];perimeter=orthogonalPerimeter;" parent="1" vertex="1">
          <mxGeometry x="445" y="170" width="10" height="50" as="geometry" />
        </mxCell>
        <mxCell id="dqhMgl3KdzNjkr8ls9Ie-39" value="qemu-img" style="text;html=1;resizable=0;autosize=1;align=center;verticalAlign=middle;points=[];fillColor=none;strokeColor=none;rounded=0;" parent="1" vertex="1">
          <mxGeometry x="450" y="175" width="70" height="20" as="geometry" />
        </mxCell>
        <mxCell id="dqhMgl3KdzNjkr8ls9Ie-41" value="create success" style="html=1;verticalAlign=bottom;endArrow=block;exitX=0.8;exitY=1;exitDx=0;exitDy=0;exitPerimeter=0;" parent="1" edge="1">
          <mxGeometry width="80" relative="1" as="geometry">
            <mxPoint x="455" y="220" as="sourcePoint" />
            <mxPoint x="572" y="220" as="targetPoint" />
            <Array as="points" />
          </mxGeometry>
        </mxCell>
        <mxCell id="dqhMgl3KdzNjkr8ls9Ie-42" value="push image&amp;nbsp;" style="html=1;verticalAlign=bottom;endArrow=block;" parent="1" source="dqhMgl3KdzNjkr8ls9Ie-15" target="dqhMgl3KdzNjkr8ls9Ie-6" edge="1">
          <mxGeometry width="80" relative="1" as="geometry">
            <mxPoint x="490" y="250" as="sourcePoint" />
            <mxPoint x="607" y="250" as="targetPoint" />
            <Array as="points">
              <mxPoint x="557.5" y="250" />
            </Array>
          </mxGeometry>
        </mxCell>
      </root>
    </mxGraphModel>
  </diagram>
  <diagram id="OdNfhxINjHuly6RD82Y7" name="Page-2">
    <mxGraphModel dx="786" dy="402" grid="1" gridSize="10" guides="1" tooltips="1" connect="1" arrows="1" fold="1" page="1" pageScale="1" pageWidth="827" pageHeight="1169" math="0" shadow="0">
      <root>
        <mxCell id="K57kBOA2XC49dd7sU3wo-0" />
        <mxCell id="K57kBOA2XC49dd7sU3wo-1" parent="K57kBOA2XC49dd7sU3wo-0" />
        <mxCell id="K57kBOA2XC49dd7sU3wo-2" value="edge-agent" style="shape=umlLifeline;perimeter=lifelinePerimeter;whiteSpace=wrap;html=1;container=1;collapsible=0;recursiveResize=0;outlineConnect=0;fillColor=#66FF66;" vertex="1" parent="K57kBOA2XC49dd7sU3wo-1">
          <mxGeometry x="10" y="30" width="100" height="380" as="geometry" />
        </mxCell>
        <mxCell id="K57kBOA2XC49dd7sU3wo-3" value="vm-controller" style="shape=umlLifeline;perimeter=lifelinePerimeter;whiteSpace=wrap;html=1;container=1;collapsible=0;recursiveResize=0;outlineConnect=0;fillColor=#33FF33;" vertex="1" parent="K57kBOA2XC49dd7sU3wo-1">
          <mxGeometry x="140" y="30" width="100" height="380" as="geometry" />
        </mxCell>
        <mxCell id="K57kBOA2XC49dd7sU3wo-4" value="" style="html=1;points=[];perimeter=orthogonalPerimeter;" vertex="1" parent="K57kBOA2XC49dd7sU3wo-3">
          <mxGeometry x="45" y="70" width="10" height="140" as="geometry" />
        </mxCell>
        <mxCell id="K57kBOA2XC49dd7sU3wo-6" value="dv-controller" style="shape=umlLifeline;perimeter=lifelinePerimeter;whiteSpace=wrap;html=1;container=1;collapsible=0;recursiveResize=0;outlineConnect=0;fillColor=#FFB366;" vertex="1" parent="K57kBOA2XC49dd7sU3wo-1">
          <mxGeometry x="260" y="30" width="100" height="380" as="geometry" />
        </mxCell>
        <mxCell id="K57kBOA2XC49dd7sU3wo-7" value="" style="html=1;points=[];perimeter=orthogonalPerimeter;" vertex="1" parent="K57kBOA2XC49dd7sU3wo-6">
          <mxGeometry x="45" y="70" width="10" height="110" as="geometry" />
        </mxCell>
        <mxCell id="K57kBOA2XC49dd7sU3wo-33" value="" style="endArrow=classic;html=1;edgeStyle=orthogonalEdgeStyle;" edge="1" parent="K57kBOA2XC49dd7sU3wo-6" source="K57kBOA2XC49dd7sU3wo-7">
          <mxGeometry width="50" height="50" relative="1" as="geometry">
            <mxPoint x="50" y="160" as="sourcePoint" />
            <mxPoint x="56" y="160" as="targetPoint" />
            <Array as="points">
              <mxPoint x="90" y="115" />
              <mxPoint x="90" y="160" />
            </Array>
          </mxGeometry>
        </mxCell>
        <mxCell id="K57kBOA2XC49dd7sU3wo-9" value="importer-pod" style="shape=umlLifeline;perimeter=lifelinePerimeter;whiteSpace=wrap;html=1;container=1;collapsible=0;recursiveResize=0;outlineConnect=0;fillColor=#FFB366;" vertex="1" parent="K57kBOA2XC49dd7sU3wo-1">
          <mxGeometry x="390" y="30" width="100" height="380" as="geometry" />
        </mxCell>
        <mxCell id="K57kBOA2XC49dd7sU3wo-10" value="" style="html=1;points=[];perimeter=orthogonalPerimeter;" vertex="1" parent="K57kBOA2XC49dd7sU3wo-9">
          <mxGeometry x="45" y="80" width="10" height="60" as="geometry" />
        </mxCell>
        <mxCell id="K57kBOA2XC49dd7sU3wo-11" value="image-cache" style="shape=umlLifeline;perimeter=lifelinePerimeter;whiteSpace=wrap;html=1;container=1;collapsible=0;recursiveResize=0;outlineConnect=0;fillColor=#FFB366;" vertex="1" parent="K57kBOA2XC49dd7sU3wo-1">
          <mxGeometry x="520" y="30" width="100" height="380" as="geometry" />
        </mxCell>
        <mxCell id="K57kBOA2XC49dd7sU3wo-12" value="" style="html=1;points=[];perimeter=orthogonalPerimeter;" vertex="1" parent="K57kBOA2XC49dd7sU3wo-11">
          <mxGeometry x="45" y="90" width="10" height="40" as="geometry" />
        </mxCell>
        <mxCell id="K57kBOA2XC49dd7sU3wo-95" value="" style="html=1;points=[];perimeter=orthogonalPerimeter;" vertex="1" parent="K57kBOA2XC49dd7sU3wo-11">
          <mxGeometry x="45" y="330" width="10" height="40" as="geometry" />
        </mxCell>
        <mxCell id="K57kBOA2XC49dd7sU3wo-13" value="cloud-glance" style="shape=umlLifeline;perimeter=lifelinePerimeter;whiteSpace=wrap;html=1;container=1;collapsible=0;recursiveResize=0;outlineConnect=0;fillColor=#33FF33;" vertex="1" parent="K57kBOA2XC49dd7sU3wo-1">
          <mxGeometry x="650" y="30" width="100" height="380" as="geometry" />
        </mxCell>
        <mxCell id="K57kBOA2XC49dd7sU3wo-14" value="create vm" style="html=1;verticalAlign=bottom;endArrow=block;" edge="1" parent="K57kBOA2XC49dd7sU3wo-1" source="K57kBOA2XC49dd7sU3wo-2" target="K57kBOA2XC49dd7sU3wo-3">
          <mxGeometry width="80" relative="1" as="geometry">
            <mxPoint x="60" y="100" as="sourcePoint" />
            <mxPoint x="140" y="100" as="targetPoint" />
            <Array as="points">
              <mxPoint x="140" y="100" />
            </Array>
          </mxGeometry>
        </mxCell>
        <mxCell id="K57kBOA2XC49dd7sU3wo-15" value="create datavolume" style="html=1;verticalAlign=bottom;endArrow=block;exitX=1;exitY=0.029;exitDx=0;exitDy=0;exitPerimeter=0;" edge="1" parent="K57kBOA2XC49dd7sU3wo-1" source="K57kBOA2XC49dd7sU3wo-4" target="K57kBOA2XC49dd7sU3wo-6">
          <mxGeometry width="80" relative="1" as="geometry">
            <mxPoint x="210" y="120" as="sourcePoint" />
            <mxPoint x="290" y="104" as="targetPoint" />
            <Array as="points" />
          </mxGeometry>
        </mxCell>
        <mxCell id="K57kBOA2XC49dd7sU3wo-16" value="" style="html=1;verticalAlign=bottom;endArrow=block;exitX=1.1;exitY=0.156;exitDx=0;exitDy=0;exitPerimeter=0;" edge="1" parent="K57kBOA2XC49dd7sU3wo-1" target="K57kBOA2XC49dd7sU3wo-9" source="K57kBOA2XC49dd7sU3wo-7">
          <mxGeometry x="0.2048" y="22" width="80" relative="1" as="geometry">
            <mxPoint x="310" y="140" as="sourcePoint" />
            <mxPoint x="427" y="140" as="targetPoint" />
            <Array as="points" />
            <mxPoint as="offset" />
          </mxGeometry>
        </mxCell>
        <mxCell id="K57kBOA2XC49dd7sU3wo-17" value="pull image" style="html=1;verticalAlign=bottom;endArrow=block;entryX=0;entryY=0.071;entryDx=0;entryDy=0;entryPerimeter=0;" edge="1" parent="K57kBOA2XC49dd7sU3wo-1" target="K57kBOA2XC49dd7sU3wo-12">
          <mxGeometry relative="1" as="geometry">
            <mxPoint x="445" y="123" as="sourcePoint" />
          </mxGeometry>
        </mxCell>
        <mxCell id="K57kBOA2XC49dd7sU3wo-21" value="pull success" style="html=1;verticalAlign=bottom;endArrow=open;dashed=1;endSize=8;exitX=0.1;exitY=0.925;exitDx=0;exitDy=0;exitPerimeter=0;entryX=0.9;entryY=0.817;entryDx=0;entryDy=0;entryPerimeter=0;" edge="1" parent="K57kBOA2XC49dd7sU3wo-1" source="K57kBOA2XC49dd7sU3wo-12" target="K57kBOA2XC49dd7sU3wo-10">
          <mxGeometry relative="1" as="geometry">
            <mxPoint x="560" y="170" as="sourcePoint" />
            <mxPoint x="450" y="168" as="targetPoint" />
            <Array as="points" />
          </mxGeometry>
        </mxCell>
        <mxCell id="K57kBOA2XC49dd7sU3wo-27" value="pull image" style="html=1;verticalAlign=bottom;endArrow=block;exitX=1.1;exitY=0.214;exitDx=0;exitDy=0;exitPerimeter=0;" edge="1" parent="K57kBOA2XC49dd7sU3wo-1" source="K57kBOA2XC49dd7sU3wo-12" target="K57kBOA2XC49dd7sU3wo-13">
          <mxGeometry relative="1" as="geometry">
            <mxPoint x="574" y="130" as="sourcePoint" />
            <mxPoint x="690" y="130.00000000000003" as="targetPoint" />
          </mxGeometry>
        </mxCell>
        <mxCell id="K57kBOA2XC49dd7sU3wo-28" value="没有缓存，回源" style="text;html=1;align=center;verticalAlign=middle;resizable=0;points=[];autosize=1;" vertex="1" parent="K57kBOA2XC49dd7sU3wo-1">
          <mxGeometry x="590" y="90" width="100" height="20" as="geometry" />
        </mxCell>
        <mxCell id="K57kBOA2XC49dd7sU3wo-30" value="success" style="html=1;verticalAlign=bottom;endArrow=open;dashed=1;endSize=8;" edge="1" parent="K57kBOA2XC49dd7sU3wo-1" source="K57kBOA2XC49dd7sU3wo-13">
          <mxGeometry relative="1" as="geometry">
            <mxPoint x="690" y="130" as="sourcePoint" />
            <mxPoint x="576" y="149" as="targetPoint" />
          </mxGeometry>
        </mxCell>
        <mxCell id="K57kBOA2XC49dd7sU3wo-32" value="create importer pod&amp;nbsp;" style="text;html=1;align=center;verticalAlign=middle;resizable=0;points=[];autosize=1;" vertex="1" parent="K57kBOA2XC49dd7sU3wo-1">
          <mxGeometry x="320" y="90" width="120" height="20" as="geometry" />
        </mxCell>
        <mxCell id="K57kBOA2XC49dd7sU3wo-34" value="update dv&lt;br&gt;&amp;nbsp;status" style="text;html=1;align=center;verticalAlign=middle;resizable=0;points=[];autosize=1;" vertex="1" parent="K57kBOA2XC49dd7sU3wo-1">
          <mxGeometry x="350" y="155" width="70" height="30" as="geometry" />
        </mxCell>
        <mxCell id="K57kBOA2XC49dd7sU3wo-35" value="create dv success" style="html=1;verticalAlign=bottom;endArrow=open;dashed=1;endSize=8;exitX=0.5;exitY=1;exitDx=0;exitDy=0;exitPerimeter=0;" edge="1" parent="K57kBOA2XC49dd7sU3wo-1">
          <mxGeometry relative="1" as="geometry">
            <mxPoint x="310.5" y="210" as="sourcePoint" />
            <mxPoint x="190" y="210" as="targetPoint" />
          </mxGeometry>
        </mxCell>
        <mxCell id="K57kBOA2XC49dd7sU3wo-36" value="create vm success" style="html=1;verticalAlign=bottom;endArrow=open;dashed=1;endSize=8;exitX=0.5;exitY=1;exitDx=0;exitDy=0;exitPerimeter=0;" edge="1" parent="K57kBOA2XC49dd7sU3wo-1">
          <mxGeometry relative="1" as="geometry">
            <mxPoint x="180.5" y="240" as="sourcePoint" />
            <mxPoint x="60" y="240" as="targetPoint" />
          </mxGeometry>
        </mxCell>
        <mxCell id="K57kBOA2XC49dd7sU3wo-71" value="" style="html=1;points=[];perimeter=orthogonalPerimeter;" vertex="1" parent="K57kBOA2XC49dd7sU3wo-1">
          <mxGeometry x="185.5" y="270" width="10" height="90" as="geometry" />
        </mxCell>
        <mxCell id="K57kBOA2XC49dd7sU3wo-72" value="" style="html=1;points=[];perimeter=orthogonalPerimeter;" vertex="1" parent="K57kBOA2XC49dd7sU3wo-1">
          <mxGeometry x="305.5" y="270" width="10" height="70" as="geometry" />
        </mxCell>
        <mxCell id="K57kBOA2XC49dd7sU3wo-73" value="" style="endArrow=classic;html=1;edgeStyle=orthogonalEdgeStyle;" edge="1" source="K57kBOA2XC49dd7sU3wo-72" parent="K57kBOA2XC49dd7sU3wo-1" target="K57kBOA2XC49dd7sU3wo-72">
          <mxGeometry width="50" height="50" relative="1" as="geometry">
            <mxPoint x="50.5" y="330" as="sourcePoint" />
            <mxPoint x="316.5" y="360" as="targetPoint" />
            <Array as="points">
              <mxPoint x="351" y="310" />
              <mxPoint x="351" y="330" />
            </Array>
          </mxGeometry>
        </mxCell>
        <mxCell id="K57kBOA2XC49dd7sU3wo-74" value="" style="html=1;points=[];perimeter=orthogonalPerimeter;" vertex="1" parent="K57kBOA2XC49dd7sU3wo-1">
          <mxGeometry x="435.5" y="280" width="10" height="40" as="geometry" />
        </mxCell>
        <mxCell id="K57kBOA2XC49dd7sU3wo-75" value="" style="html=1;points=[];perimeter=orthogonalPerimeter;" vertex="1" parent="K57kBOA2XC49dd7sU3wo-1">
          <mxGeometry x="565.5" y="290" width="10" height="20" as="geometry" />
        </mxCell>
        <mxCell id="K57kBOA2XC49dd7sU3wo-76" value="scale vm" style="html=1;verticalAlign=bottom;endArrow=block;" edge="1" parent="K57kBOA2XC49dd7sU3wo-1">
          <mxGeometry width="80" relative="1" as="geometry">
            <mxPoint x="60" y="270" as="sourcePoint" />
            <mxPoint x="190" y="270" as="targetPoint" />
            <Array as="points">
              <mxPoint x="140.5" y="270" />
            </Array>
          </mxGeometry>
        </mxCell>
        <mxCell id="K57kBOA2XC49dd7sU3wo-77" value="create datavolume" style="html=1;verticalAlign=bottom;endArrow=block;exitX=1;exitY=0.029;exitDx=0;exitDy=0;exitPerimeter=0;" edge="1" source="K57kBOA2XC49dd7sU3wo-71" parent="K57kBOA2XC49dd7sU3wo-1">
          <mxGeometry width="80" relative="1" as="geometry">
            <mxPoint x="210.5" y="290" as="sourcePoint" />
            <mxPoint x="310" y="274.06" as="targetPoint" />
            <Array as="points" />
          </mxGeometry>
        </mxCell>
        <mxCell id="K57kBOA2XC49dd7sU3wo-78" value="" style="html=1;verticalAlign=bottom;endArrow=block;" edge="1" parent="K57kBOA2XC49dd7sU3wo-1">
          <mxGeometry x="0.2048" y="22" width="80" relative="1" as="geometry">
            <mxPoint x="317" y="287" as="sourcePoint" />
            <mxPoint x="440" y="287.15999999999997" as="targetPoint" />
            <Array as="points" />
            <mxPoint as="offset" />
          </mxGeometry>
        </mxCell>
        <mxCell id="K57kBOA2XC49dd7sU3wo-79" value="pull image" style="html=1;verticalAlign=bottom;endArrow=block;entryX=0;entryY=0.071;entryDx=0;entryDy=0;entryPerimeter=0;" edge="1" target="K57kBOA2XC49dd7sU3wo-75" parent="K57kBOA2XC49dd7sU3wo-1">
          <mxGeometry relative="1" as="geometry">
            <mxPoint x="446" y="291" as="sourcePoint" />
          </mxGeometry>
        </mxCell>
        <mxCell id="K57kBOA2XC49dd7sU3wo-80" value="pull success" style="html=1;verticalAlign=bottom;endArrow=open;dashed=1;endSize=8;exitX=0.1;exitY=0.925;exitDx=0;exitDy=0;exitPerimeter=0;" edge="1" source="K57kBOA2XC49dd7sU3wo-75" parent="K57kBOA2XC49dd7sU3wo-1">
          <mxGeometry relative="1" as="geometry">
            <mxPoint x="560.5" y="340" as="sourcePoint" />
            <mxPoint x="447" y="311" as="targetPoint" />
            <Array as="points" />
          </mxGeometry>
        </mxCell>
        <mxCell id="K57kBOA2XC49dd7sU3wo-84" value="create importer pod&amp;nbsp;" style="text;html=1;align=center;verticalAlign=middle;resizable=0;points=[];autosize=1;" vertex="1" parent="K57kBOA2XC49dd7sU3wo-1">
          <mxGeometry x="320.5" y="260" width="120" height="20" as="geometry" />
        </mxCell>
        <mxCell id="K57kBOA2XC49dd7sU3wo-85" value="update dv&lt;br&gt;&amp;nbsp;status" style="text;html=1;align=center;verticalAlign=middle;resizable=0;points=[];autosize=1;" vertex="1" parent="K57kBOA2XC49dd7sU3wo-1">
          <mxGeometry x="350" y="310" width="70" height="30" as="geometry" />
        </mxCell>
        <mxCell id="K57kBOA2XC49dd7sU3wo-86" value="" style="html=1;verticalAlign=bottom;endArrow=open;dashed=1;endSize=8;exitX=0.5;exitY=1;exitDx=0;exitDy=0;exitPerimeter=0;entryX=-0.014;entryY=0.9;entryDx=0;entryDy=0;entryPerimeter=0;" edge="1" parent="K57kBOA2XC49dd7sU3wo-1">
          <mxGeometry x="0.3444" y="-40" relative="1" as="geometry">
            <mxPoint x="306" y="340" as="sourcePoint" />
            <mxPoint x="193.96000000000004" y="338" as="targetPoint" />
            <mxPoint as="offset" />
          </mxGeometry>
        </mxCell>
        <mxCell id="K57kBOA2XC49dd7sU3wo-87" value="" style="html=1;verticalAlign=bottom;endArrow=open;dashed=1;endSize=8;exitX=0.5;exitY=1;exitDx=0;exitDy=0;exitPerimeter=0;" edge="1" parent="K57kBOA2XC49dd7sU3wo-1" target="K57kBOA2XC49dd7sU3wo-2">
          <mxGeometry x="0.1784" y="-60" relative="1" as="geometry">
            <mxPoint x="185.5" y="360" as="sourcePoint" />
            <mxPoint x="65" y="360" as="targetPoint" />
            <mxPoint as="offset" />
          </mxGeometry>
        </mxCell>
        <mxCell id="K57kBOA2XC49dd7sU3wo-88" value="命中缓存" style="text;html=1;align=center;verticalAlign=middle;resizable=0;points=[];autosize=1;" vertex="1" parent="K57kBOA2XC49dd7sU3wo-1">
          <mxGeometry x="575.5" y="290" width="60" height="20" as="geometry" />
        </mxCell>
        <mxCell id="K57kBOA2XC49dd7sU3wo-92" value="create dv success" style="text;html=1;align=center;verticalAlign=middle;resizable=0;points=[];autosize=1;" vertex="1" parent="K57kBOA2XC49dd7sU3wo-1">
          <mxGeometry x="195.5" y="320" width="110" height="20" as="geometry" />
        </mxCell>
        <mxCell id="K57kBOA2XC49dd7sU3wo-93" value="scale vm success" style="text;html=1;align=center;verticalAlign=middle;resizable=0;points=[];autosize=1;" vertex="1" parent="K57kBOA2XC49dd7sU3wo-1">
          <mxGeometry x="55" y="340" width="110" height="20" as="geometry" />
        </mxCell>
        <mxCell id="K57kBOA2XC49dd7sU3wo-98" value="" style="endArrow=classic;html=1;edgeStyle=orthogonalEdgeStyle;entryX=1.1;entryY=0.925;entryDx=0;entryDy=0;entryPerimeter=0;" edge="1" parent="K57kBOA2XC49dd7sU3wo-1" target="K57kBOA2XC49dd7sU3wo-95">
          <mxGeometry width="50" height="50" relative="1" as="geometry">
            <mxPoint x="575.5" y="365" as="sourcePoint" />
            <mxPoint x="576.5" y="410" as="targetPoint" />
            <Array as="points">
              <mxPoint x="600" y="365" />
              <mxPoint x="600" y="397" />
            </Array>
          </mxGeometry>
        </mxCell>
        <mxCell id="K57kBOA2XC49dd7sU3wo-99" value="GC过期缓存" style="text;html=1;align=center;verticalAlign=middle;resizable=0;points=[];autosize=1;" vertex="1" parent="K57kBOA2XC49dd7sU3wo-1">
          <mxGeometry x="600" y="370" width="80" height="20" as="geometry" />
        </mxCell>
      </root>
    </mxGraphModel>
  </diagram>
</mxfile>
